<?xml version="1.0" encoding="UTF-8"?>
<svg width="20px" height="22px" viewBox="0 0 20 22" version="1.1" xmlns="http://www.w3.org/2000/svg" xmlns:xlink="http://www.w3.org/1999/xlink">
    <!-- Generator: Sketch 64 (93537) - https://sketch.com -->
    <title>Color</title>
    <desc>Created with Sketch.</desc>
    <defs>
        <path d="M20.1541722,3 C21.4914503,3 21.9763797,3.13923842 22.4652686,3.40069906 C22.9541574,3.66215969 23.3378403,4.04584256 23.5993009,4.53473144 C23.8607616,5.02362033 24,5.50854969 24,6.8458278 L24,21.1541722 C24,22.4914503 23.8607616,22.9763797 23.5993009,23.4652686 C23.3378403,23.9541574 22.9541574,24.3378403 22.4652686,24.5993009 C21.9763797,24.8607616 21.4914503,25 20.1541722,25 L7.8458278,25 C6.50854969,25 6.02362033,24.8607616 5.53473144,24.5993009 C5.04584256,24.3378403 4.66215969,23.9541574 4.40069906,23.4652686 C4.13923842,22.9763797 4,22.4914503 4,21.1541722 L4,6.8458278 C4,5.50854969 4.13923842,5.02362033 4.40069906,4.53473144 C4.66215969,4.04584256 5.04584256,3.66215969 5.53473144,3.40069906 C6.02362033,3.13923842 6.50854969,3 7.8458278,3 L20.1541722,3 Z M20.3403824,5.00067564 L7.8458278,5 C6.92853228,5 6.70418221,5.043324 6.47792916,5.16432545 C6.33757722,5.23938649 6.23938649,5.33757722 6.16432545,5.47792916 C6.05196696,5.68802128 6.00658546,5.89647256 6.00067564,6.65961756 L6,21.1541722 C6,22.0714677 6.043324,22.2958178 6.16432545,22.5220708 C6.23938649,22.6624228 6.33757722,22.7606135 6.47792916,22.8356745 C6.70418221,22.956676 6.92853228,23 7.8458278,23 L20.1541722,23 C21.0714677,23 21.2958178,22.956676 21.5220708,22.8356745 C21.6624228,22.7606135 21.7606135,22.6624228 21.8356745,22.5220708 C21.956676,22.2958178 22,22.0714677 22,21.1541722 L22,6.8458278 C22,5.92853228 21.956676,5.70418221 21.8356745,5.47792916 C21.7606135,5.33757722 21.6624228,5.23938649 21.5220708,5.16432545 C21.3119787,5.05196696 21.1035274,5.00658546 20.3403824,5.00067564 Z M18.7180574,11 C19.1638168,11 19.3254599,11.0464128 19.4884229,11.1335664 C19.6513858,11.2207199 19.7792801,11.3486142 19.8664336,11.5115771 C19.9535872,11.6745401 20,11.8361832 20,12.2819426 L20,19.7180574 C20,20.1638168 19.9535872,20.3254599 19.8664336,20.4884229 C19.7792801,20.6513858 19.6513858,20.7792801 19.4884229,20.8664336 C19.3254599,20.9535872 19.1638168,21 18.7180574,21 L9.2819426,21 C8.83618323,21 8.67454011,20.9535872 8.51157715,20.8664336 C8.34861419,20.7792801 8.2207199,20.6513858 8.13356635,20.4884229 C8.04641281,20.3254599 8,20.1638168 8,19.7180574 L8,12.2819426 C8,11.8361832 8.04641281,11.6745401 8.13356635,11.5115771 C8.2207199,11.3486142 8.34861419,11.2207199 8.51157715,11.1335664 C8.67454011,11.0464128 8.83618323,11 9.2819426,11 L18.7180574,11 Z M15,7 C15.5522847,7 16,7.44771525 16,8 C16,8.55228475 15.5522847,9 15,9 L9,9 C8.44771525,9 8,8.55228475 8,8 C8,7.44771525 8.44771525,7 9,7 L15,7 Z" id="path-1"></path>
    </defs>
    <g id="Symbols" stroke="none" stroke-width="1" fill="none" fill-rule="evenodd">
        <g id="Icons-/-Feed" transform="translate(-4.000000, -3.000000)">
            <mask id="mask-2" fill="white">
                <use xlink:href="#path-1"></use>
            </mask>
            <use id="Icon" fill="#000000" fill-rule="nonzero" xlink:href="#path-1"></use>
            <g id="Colors-/-White" mask="url(#mask-2)" fill="#FFFFFF">
                <rect id="Color" x="0" y="0" width="28" height="28"></rect>
            </g>
        </g>
    </g>
</svg>